@startuml
Employee <|-- BaseEmployee
Employee <|-- HourlyEmployee
Employee <|-- CommissionEmployee
Employee <|-- SalariedEmployee

abstract class Employee{
    - firstName: String
    - lastName: String
    - socialSecurityNumber: String
    + getFirstName(): String
    + setFirstName(firstName: String)
    + getLastName(): String
    + setLastName(lastName: String)
    + getSocialSecurityNumber(): String
    + setSocialSecurityNumber(ssn: String)
    + toString(): String
}
class BaseEmployee {
    - baseSalary: double
    + getBaseSalary(): double
    + setBaseSalary(salary: double)
    + toString(): String
}
class HourlyEmployee {
    - wage: int
    - hoursWorked: int
    + getWage(): int
    + setWage(wage: int)
    + getHoursWorked(): int
    + setHoursWorked(hoursWorked: int)
    + toString(): String
}
class CommissionEmployee {
    - commissionRate: int
    - grossSales: int
    + getCommissionRate(): int
    + setCommissionRate(rate: int)
    + getGrossSales(): int
    + setGrossSales(sales: int)
    + toString(): String
}
class SalariedEmployee {
    - weeklySalary: int
    + getWeeklySalary(): int
    + setWeeklySalary(salary: int)
    + toString(): String
}
@enduml